<svg width="321" height="82" viewBox="0 0 3121 582" fill="none" xmlns="http://www.w3.org/2000/svg">
<g id="Laptop">
<path id="Vector" d="M965.7 522.7C965.7 535.237 955.533 545.4 942.996 545.4H207.566C195.029 545.4 184.862 535.237 184.862 522.7V27.52C184.862 14.983 195.029 4.82001 207.566 4.82001H942.996C955.533 4.82001 965.7 14.983 965.7 27.52V522.7Z" fill="white"/>
<path id="Vector_2" d="M943 549.4H207.57C192.843 549.4 180.862 537.421 180.862 522.695V27.515C180.862 12.788 192.843 0.809998 207.57 0.809998H943C957.727 0.809998 969.709 12.788 969.709 27.515V522.695C969.71 537.421 957.727 549.399 943.001 549.399L943 549.4ZM207.57 8.82001C197.258 8.82001 188.87 17.208 188.87 27.516V522.696C188.87 533.004 197.258 541.392 207.57 541.392H943C953.312 541.392 961.7 533.003 961.7 522.696V27.516C961.7 17.208 953.311 8.82001 943 8.82001H207.57Z" fill="#305D8A"/>
<g id="Group" opacity="0.2">
<path id="Vector_3" opacity="0.2" d="M939 4.78003H931.672C941.624 4.78003 949.692 12.847 949.692 22.799V513.319H961.705V27.479C961.704 14.941 951.537 4.77899 939 4.77899V4.78003Z" fill="#9DB6C9"/>
</g>
<g id="Group_2" opacity="0.2">
<path id="Vector_4" opacity="0.2" d="M917.6 402.5C917.6 415.037 907.433 425.199 894.896 425.199H255.576C243.039 425.199 232.872 415.037 232.872 402.5V59.48C232.872 46.943 243.039 36.78 255.576 36.78H894.896C907.433 36.78 917.6 46.944 917.6 59.48V402.5Z" fill="#9DB6C9"/>
</g>
<path id="Vector_5" d="M917.6 514.6C917.6 527.136 907.433 537.3 894.896 537.3H255.576C243.039 537.3 232.872 527.136 232.872 514.6V71.48C232.872 58.943 243.039 48.78 255.576 48.78H894.896C907.433 48.78 917.6 58.943 917.6 71.48V514.6Z" fill="#EFEFEF"/>
<path id="Vector_6" d="M894.9 541.4H255.58C240.853 541.4 228.872 529.422 228.872 514.696V71.576C228.872 56.849 240.853 44.872 255.58 44.872H894.9C909.627 44.872 921.608 56.85 921.608 71.576V514.696C921.608 529.423 909.626 541.401 894.9 541.401V541.4ZM255.58 52.88C245.268 52.88 236.881 61.268 236.881 71.575V514.695C236.881 525.003 245.269 533.39 255.58 533.39H894.9C905.212 533.39 913.599 525.002 913.599 514.695V71.575C913.599 61.267 905.211 52.88 894.9 52.88H255.58Z" fill="#305D8A"/>
<g id="Group_3" opacity="0.41">
<path id="Vector_7" opacity="0.41" d="M893.9 52.83H461.63L913.61 369.17V75.53C913.61 58.508 905.019 52.83 893.901 52.83H893.9Z" fill="white"/>
</g>
<path id="Vector_8" d="M1100.6 517.3H53.9C41.363 517.3 35.611 527.991 39.205 540C40.401 544.005 42.85 553.3 43.882 557.347C46.983 569.493 57.381 577.365 69.918 577.365H1084.62C1097.16 577.365 1107.55 569.493 1110.65 557.347C1111.69 553.3 1114.13 544.005 1115.33 540C1118.92 527.992 1113.17 517.3 1100.64 517.3H1100.6Z" fill="white"/>
<path id="Vector_9" d="M1084.6 581.4H69.9C55.525 581.4 43.501 572.144 39.985 558.367C38.992 554.48 36.536 545.141 35.351 541.177C33.055 533.517 34.018 526.06 37.99 520.73C41.545 515.956 47.188 513.328 53.882 513.328H1100.58C1107.28 513.328 1112.92 515.956 1116.47 520.73C1120.45 526.06 1121.41 533.517 1119.11 541.181C1117.93 545.142 1115.47 554.481 1114.48 558.368C1110.97 572.144 1098.94 581.4 1084.57 581.4H1084.6ZM53.9 521.335C49.739 521.335 46.466 522.778 44.429 525.512C41.985 528.792 41.481 533.668 43.041 538.881C44.273 543.01 46.725 552.321 47.761 556.388C50.401 566.715 59.098 573.391 69.918 573.391H1084.62C1095.44 573.391 1104.14 566.715 1106.77 556.388C1107.81 552.322 1110.26 543.01 1111.49 538.885C1113.06 533.668 1112.55 528.792 1110.11 525.512C1108.07 522.779 1104.8 521.335 1100.63 521.335H53.935H53.9Z" fill="#305D8A"/>
<g id="Group_4" opacity="0.2">
<path id="Vector_10" opacity="0.2" d="M643.9 517.3H465.18V530.639C465.18 543.176 475.347 553.339 487.884 553.339H662.714C675.25 553.339 685.417 543.176 685.417 530.639V517.3H643.9V517.3Z" fill="#9DB6C9"/>
</g>
<path id="Vector_11" d="M643.9 517.3H469.36C470.689 528.571 480.262 537.322 491.892 537.322H658.712C670.342 537.322 679.914 528.57 681.244 517.3H643.902H643.9Z" fill="#9DB6C9"/>
<path id="Vector_12" d="M658.7 541.4H491.88C478.354 541.4 466.955 531.271 465.371 517.843C465.238 516.708 465.594 515.567 466.356 514.714C467.115 513.859 468.206 513.369 469.348 513.369H681.228C682.37 513.369 683.46 513.858 684.219 514.714C684.982 515.567 685.338 516.708 685.204 517.843C683.621 531.271 672.222 541.4 658.696 541.4H658.7ZM474.42 521.378C477.122 528.463 483.981 533.391 491.876 533.391H658.696C666.592 533.391 673.45 528.463 676.153 521.378H474.423H474.42Z" fill="#305D8A"/>
<g id="Group_5" opacity="0.2">
<path id="Vector_13" opacity="0.2" d="M47.37 561.4C52.172 568.878 60.427 573.414 69.929 573.414H1084.63C1094.13 573.414 1102.39 568.878 1107.19 561.4H47.389H47.37Z" fill="#9DB6C9"/>
</g>
<g id="Group_6" opacity="0.33">
<path id="Vector_14" opacity="0.33" d="M894.9 48.82H255.58C243.043 48.82 232.876 58.983 232.876 71.52V83.533C232.876 70.996 243.043 60.833 255.58 60.833H894.9C907.437 60.833 917.604 70.997 917.604 83.533V71.52C917.604 58.983 907.437 48.82 894.9 48.82Z" fill="#9DB6C9"/>
</g>
<g id="Group_7" opacity="0.2">
<path id="Vector_15" opacity="0.2" d="M949.66 505.3H184.84V513.309H949.66V505.3Z" fill="#9DB6C9"/>
</g>
<path id="Vector_16" d="M577.3 29.805C579.788 29.805 581.805 27.788 581.805 25.3C581.805 22.8119 579.788 20.795 577.3 20.795C574.812 20.795 572.795 22.8119 572.795 25.3C572.795 27.788 574.812 29.805 577.3 29.805Z" fill="#305D8A"/>
<g id="Group_8" opacity="0.2">
<path id="Vector_17" opacity="0.2" d="M933.6 4.97998C934.265 4.90198 934.914 4.77698 935.602 4.77698H933.6V4.97998Z" fill="#9DB6C9"/>
</g>
<path id="Vector_18" d="M195.52 494.3C195.52 464.002 171.044 439.437 140.793 439.249V431.897C140.793 419.36 130.626 409.198 118.089 409.198H27.352C14.815 409.198 4.64801 419.36 4.64801 431.897V554.677C4.64801 567.214 14.815 577.377 27.352 577.377H118.089C130.626 577.377 140.793 567.214 140.793 554.677V549.351C171.045 549.164 195.52 524.598 195.52 494.301V494.3ZM140.794 525.325V463.274C157.781 463.458 171.495 477.27 171.495 494.299C171.495 511.328 157.781 525.141 140.794 525.325V525.325Z" fill="#EAE8E1"/>
<path id="Vector_19" d="M118.09 581.4H27.353C12.626 581.4 0.644989 569.421 0.644989 554.695V431.915C0.644989 417.188 12.627 405.211 27.353 405.211H118.09C132.817 405.211 144.798 417.189 144.798 431.915V435.419C175.319 437.663 199.525 463.292 199.525 494.317C199.525 525.342 175.319 550.971 144.798 553.216V554.694C144.798 569.421 132.817 581.4 118.09 581.4V581.4ZM27.353 413.22C17.041 413.22 8.65302 421.609 8.65302 431.916V554.696C8.65302 565.005 17.041 573.392 27.353 573.392H118.09C128.403 573.392 136.79 565.004 136.79 554.696V549.37C136.79 547.169 138.569 545.382 140.77 545.366C168.749 545.194 191.516 522.294 191.516 494.319C191.516 466.344 168.749 443.444 140.77 443.272C138.568 443.257 136.79 441.469 136.79 439.268V431.916C136.79 421.608 128.402 413.22 118.09 413.22H27.353ZM140.793 529.35C139.737 529.35 138.729 528.936 137.978 528.193C137.216 527.442 136.79 526.419 136.79 525.346V463.295C136.79 462.224 137.216 461.199 137.978 460.448C138.741 459.693 139.816 459.217 140.836 459.291C159.95 459.498 175.498 475.211 175.498 494.32C175.498 513.43 159.95 529.143 140.836 529.349C140.821 529.35 140.809 529.35 140.793 529.35V529.35ZM144.797 467.648V520.994C157.627 518.898 167.489 507.687 167.489 494.321C167.489 480.955 157.627 469.744 144.797 467.648Z" fill="#305D8A"/>
<path id="Vector_20" opacity="0.2" d="M140.8 439.3V431.948C140.8 419.411 130.633 409.249 118.096 409.249H88.744V577.429H118.096C130.633 577.429 140.8 567.266 140.8 554.729V549.403C171.051 549.215 195.527 524.65 195.527 494.352C195.527 464.054 171.051 439.488 140.8 439.301V439.3ZM140.8 525.376V463.325C157.787 463.509 171.501 477.321 171.501 494.35C171.501 511.379 157.787 525.192 140.8 525.376V525.376Z" fill="#9DB6C9"/>
</g>
</svg>
