<svg width="105" height="134" viewBox="0 0 285 314" fill="none" xmlns="http://www.w3.org/2000/svg">
<g id="light">
<path id="Vector" d="M44.3933 175.375C55.9461 200.123 76.275 219.54 100.908 229.354C125.541 239.169 152.46 238.576 175.743 227.707C199.026 216.838 216.767 196.584 225.061 171.398C233.356 146.213 231.526 118.161 219.973 93.4125C208.42 68.6642 188.091 49.2471 163.459 39.4329C138.826 29.6186 111.907 30.211 88.6235 41.0799C65.3402 51.9488 47.5999 72.2037 39.3051 97.3889C31.0103 122.574 32.8406 150.626 44.3933 175.375V175.375Z" fill="#FFFF00"/>
<path id="Vector_2" d="M103.847 150.084C104.293 149.86 104.738 149.672 105.214 149.497C107.118 148.795 109.274 148.489 111.552 148.679C115.838 149.036 119.372 151.305 122.248 154.229C123.188 152.956 124.107 151.663 125.282 150.62C128.444 147.815 132.583 146.02 137.217 146.406C141.862 146.793 145.728 149.27 148.61 152.571C149.299 153.361 149.803 154.31 150.393 155.183C153.281 153.396 156.762 152.207 161.187 152.702C172.268 153.941 179.563 162.647 180.337 172.627C181.111 182.607 175.512 193.84 162.296 200.57C153.91 204.841 150.044 216.042 148.528 226.57C148.062 229.807 147.823 232.892 147.7 235.674C146.21 235.848 144.698 235.948 143.207 236.049C143.318 232.98 143.573 229.519 144.098 225.872C145.7 214.747 149.674 201.901 160.249 196.515C172.181 190.438 176.532 180.961 175.908 172.92C175.284 164.879 169.847 158.236 160.784 157.223C157.149 156.816 154.688 157.678 152.675 158.972C153.477 160.654 154.186 162.343 154.701 164.081C155.915 168.186 156.342 172.311 155.866 175.699C155.628 177.392 155.156 178.896 154.274 180.2C153.392 181.503 151.968 182.557 150.28 182.743C148.623 182.925 146.977 182.259 145.825 181.221C144.673 180.183 143.892 178.835 143.337 177.319C142.226 174.289 141.976 170.541 142.671 166.773C143.251 163.636 144.735 160.63 146.914 158.059C146.365 157.214 145.908 156.262 145.274 155.536C142.96 152.885 140.197 151.162 136.897 150.887C133.584 150.611 130.73 151.839 128.26 154.031C127.074 155.083 126.032 156.383 125.097 157.805C126.964 160.513 128.553 163.418 129.495 166.347C130.772 170.319 131.267 174.114 130.509 177.2C130.13 178.744 129.375 180.24 127.927 181.12C126.479 182 124.615 181.971 122.895 181.329C119.376 180.015 117.414 176.581 116.867 172.921C116.32 169.261 116.91 165.12 118.354 161.162C118.747 160.085 119.355 159.086 119.877 158.05C119.851 158.03 119.862 157.984 119.837 157.964C117.403 155.251 114.508 153.432 111.233 153.159C107.843 152.877 105.399 153.925 103.48 155.891C101.561 157.857 100.229 160.891 99.7609 164.517C98.8251 171.768 101.394 181.254 108.316 188.448L108.336 188.491C116.495 197 119.91 212.094 121.664 225.174C122.16 228.869 122.46 232.152 122.695 235.184C121.188 234.956 119.679 234.72 118.183 234.42C117.954 231.708 117.618 228.793 117.209 225.74C115.505 213.031 111.757 198.534 105.123 191.609L105.103 191.566C97.192 183.344 94.1771 172.651 95.3089 163.881C95.8746 159.496 97.4844 155.532 100.247 152.702C101.284 151.641 102.505 150.751 103.846 150.083L103.847 150.084ZM122.838 162.306C122.772 162.472 122.66 162.616 122.599 162.783C121.373 166.142 120.908 169.674 121.302 172.313C121.697 174.952 122.715 176.45 124.399 177.079C125.28 177.408 125.473 177.272 125.586 177.204C125.699 177.136 125.97 176.865 126.172 176.042C126.576 174.397 126.353 171.121 125.254 167.702C124.672 165.891 123.828 164.06 122.837 162.306L122.838 162.306ZM149.186 162.377C148.195 163.977 147.43 165.733 147.078 167.641C146.522 170.65 146.82 173.795 147.561 175.819C147.932 176.831 148.386 177.514 148.772 177.863C149.159 178.212 149.338 178.297 149.724 178.254C150.079 178.215 150.279 178.124 150.613 177.63C150.946 177.137 151.265 176.231 151.437 175.001C151.782 172.542 151.478 168.926 150.42 165.35C150.118 164.329 149.601 163.378 149.186 162.377L149.186 162.377Z" fill="#FF6600"/>
<path id="Vector_3" d="M127.748 271.56C129.044 271.411 130.368 271.372 131.734 271.526C131.869 271.541 131.995 271.585 132.128 271.603C130.657 271.635 129.196 271.622 127.748 271.56V271.56ZM113.905 286.739C123.142 290.401 134.787 291.216 146.556 288.774C145.584 296.959 137.727 302.76 128.814 301.754C120.501 300.815 114.209 294.285 113.905 286.739L113.905 286.739Z" fill="#4D4D4D"/>
<path id="Vector_4" d="M95.3762 258.433C105.77 270.715 129.221 274.99 150.183 268.811C157.904 266.536 163.071 262.855 166.259 258.854C170.488 265.37 171.257 281.763 151.96 287.451C122.794 296.048 92.1019 283.806 95.3762 258.433Z" fill="#552200"/>
<path id="Vector_5" d="M90.351 238.857C100.085 253.538 128.426 258.535 151.325 251.786C159.932 249.249 165.439 245.819 168.896 242.174C172.99 248.526 169.599 263.089 150.192 268.808C120.407 277.587 85.5543 265.328 90.3509 238.857L90.351 238.857Z" fill="#333333"/>
<path id="Vector_6" d="M87.2859 222.642C113.587 238 145.635 241.143 174.294 228.375C174.453 235.304 171.131 245.952 151.272 251.805C121.321 260.633 82.0172 249.419 87.2851 222.642L87.2859 222.642Z" fill="#1A1A1A"/>
<path id="Vector_7" d="M95.3762 258.433C105.77 270.715 129.221 274.99 150.183 268.811C157.904 266.536 163.071 262.855 166.259 258.854C170.488 265.37 171.257 281.763 151.96 287.451C122.794 296.048 92.1019 283.806 95.3762 258.433Z" fill="#1A1A1A"/>
<path id="Vector_8" d="M199.045 193.539C199.045 193.539 235.591 132.768 195.794 84.3238C155.996 35.8775 93.5637 51.4222 91.3106 67.0446C89.057 82.6673 129.698 69.5238 153.154 80.9163C176.61 92.3087 214.566 116.358 199.046 193.542L199.045 193.539Z" fill="white"/>
</g>
</svg>
