<svg width="96" height="95" viewBox="0 0 396 395" fill="none" xmlns="http://www.w3.org/2000/svg">
<g id="lupa">
<path id="l" d="M381.95 350.8L350.8 381.95L362.7 393.85L364.763 394.862L395.388 364.237L381.95 350.8V350.8Z" fill="#278279"/>
<path id="Vector" d="M251.175 220.025C250.838 220.8 250.337 221.525 249.7 222.162L222.162 249.7C221.525 250.337 220.8 250.825 220.025 251.175L350.8 381.95L381.95 350.8L251.175 220.025V220.025Z" fill="#295148"/>
<path id="Vector_2" d="M251.175 220.025C251.575 219.162 251.8 218.225 251.838 217.3L249.165 218.015L251.175 220.025Z" fill="#278279"/>
<path id="Vector_3" d="M196.75 234.7L211.75 249.7C213.987 251.937 217.312 252.437 220.025 251.175L200.812 231.963C199.475 232.913 198.125 233.825 196.75 234.7Z" fill="#278279"/>
<path id="Vector_4" d="M249.7 222.162C250.337 221.525 250.838 220.8 251.175 220.025L249.165 218.015L203.098 230.326C202.336 230.889 201.574 231.438 200.812 231.963L220.025 251.175C220.8 250.825 221.525 250.337 222.162 249.7L249.7 222.162V222.162Z" fill="#278279"/>
<path id="Vector_5" d="M249.162 218.013L251.835 217.297C251.935 215.297 251.222 213.272 249.697 211.747L234.697 196.747C233.822 198.122 232.91 199.472 231.96 200.81L249.162 218.013Z" fill="#278279"/>
<g id="Group" opacity="0.7">
<path id="Vector_6" opacity="0.7" d="M249.162 218.013L251.835 217.297C251.935 215.297 251.222 213.272 249.697 211.747L234.697 196.747C233.822 198.122 232.91 199.472 231.96 200.81L249.162 218.013Z" fill="#278279"/>
</g>
<path id="Vector_7" d="M217.738 217.738C213.113 222.363 208.212 226.562 203.1 230.325L203.098 230.326L249.165 218.015L231.963 200.812C227.8 206.762 223.05 212.425 217.738 217.738Z" fill="#278279"/>
<g id="Group_2" opacity="0.7">
<path id="Vector_8" opacity="0.7" d="M217.738 217.738C213.113 222.363 208.212 226.562 203.1 230.325L203.098 230.326L249.165 218.015L231.963 200.812C227.8 206.762 223.05 212.425 217.738 217.738Z" fill="#278279"/>
</g>
<path id="Vector_9" d="M171.138 7.96251L195.812 20.075C187.962 15.0875 179.688 11.05 171.138 7.96251Z" fill="#0D6954"/>
<path id="Vector_10" d="M198.038 229.188L186.828 217.976C144.965 245.451 88.19 240.801 51.39 204.001C50.0838 202.695 48.8138 201.353 47.5838 199.99C47.575 199.98 47.5663 199.971 47.5588 199.961C47.49 199.887 47.42 199.814 47.3525 199.739C47.37 199.754 47.3888 199.769 47.405 199.785C9.30251 157.42 10.6275 92.1562 51.3925 51.385C92.1575 10.62 157.421 9.29499 199.792 47.3975C199.776 47.3812 199.761 47.3625 199.746 47.345C199.821 47.4125 199.895 47.4825 199.969 47.5512C199.979 47.5587 199.987 47.5675 199.997 47.5763C201.36 48.805 202.703 50.0762 204.009 51.3825C240.809 88.1825 245.464 144.954 217.985 186.82L229.196 198.03L232.596 194.63L234.709 196.742C266.634 147.417 260.971 80.855 217.746 37.6425C210.959 30.855 203.596 24.9925 195.821 20.0675L171.146 7.95498C126.121 -8.35753 73.7463 1.54248 37.6588 37.6425C-12.0787 87.3675 -12.0787 168.005 37.6588 217.73C80.8713 260.955 147.434 266.617 196.759 234.692L194.646 232.58L198.046 229.18L198.038 229.188Z" fill="#0D6954"/>
<path id="Vector_11" d="M217.975 186.825C213.991 192.897 209.335 198.659 203.999 203.998C198.66 209.334 192.899 213.99 186.826 217.974L198.036 229.185L229.186 198.035L217.975 186.825V186.825Z" fill="#0D6954"/>
<path id="Vector_12" d="M200 231.15L194.634 232.585L196.746 234.698C198.121 233.823 199.471 232.91 200.809 231.96L200 231.15Z" fill="#0D6954"/>
<path id="Vector_13" d="M200.813 231.963C201.574 231.438 202.336 230.889 203.098 230.326L200.004 231.153L200.813 231.963V231.963Z" fill="#0D6954"/>
<path id="Vector_14" d="M198.038 229.188L194.638 232.588L198.038 229.188Z" fill="#0D6954"/>
<path id="Vector_15" d="M229.188 198.037L198.038 229.188L229.188 198.037Z" fill="#0D6954"/>
<path id="Vector_16" d="M194.638 232.588L200.004 231.153L198.038 229.188L194.638 232.588Z" fill="#0D6954"/>
<path id="Vector_17" d="M217.738 217.738C223.05 212.425 227.8 206.762 231.963 200.812L229.188 198.037L198.038 229.188L200.004 231.152L203.098 230.326L203.1 230.325C208.212 226.562 213.113 222.363 217.738 217.738" fill="#0D6954"/>
</g>
</svg>
