<svg width="116" height="125" viewBox="0 0 616 625" fill="none" xmlns="http://www.w3.org/2000/svg">
<g id="parts">
<path id="path4817" d="M234.252 72.9676C225.168 74.6142 219.663 83.1782 220.827 92.3367L227.152 142.093C204.44 151.518 192.361 158.589 173.841 175.655L130.742 150.334C123.155 145.075 112.812 146.95 107.553 154.538L78.2098 196.872C72.9506 204.459 74.8253 214.802 82.4131 220.061L121.427 251.653C111.858 274.935 109.378 288.691 108.422 313.25L59.7242 324.771C50.7401 326.897 44.652 335.057 46.2985 344.141L55.4851 394.824C57.1317 403.908 65.6966 409.413 74.8551 408.249L124.612 401.925C134.036 424.636 141.108 436.715 158.174 455.236L132.852 498.335C127.593 505.923 129.467 516.264 137.055 521.524L179.39 550.866C186.978 556.126 196.77 553.838 202.58 546.663L234.171 507.651C257.453 517.219 271.21 519.699 295.768 520.654L307.29 569.353C309.415 578.337 317.575 584.424 326.659 582.778L377.342 573.591C386.426 571.945 391.932 563.381 390.768 554.222L384.443 504.465C407.155 495.04 419.233 487.968 437.753 470.903L480.852 496.224C488.44 501.483 498.783 499.609 504.042 492.021L533.384 449.686C538.643 442.099 536.769 431.757 529.181 426.498L490.168 394.907C499.737 371.624 502.217 357.867 503.173 333.308L551.87 321.787C560.855 319.661 566.942 311.502 565.295 302.418L556.109 251.735C554.462 242.651 545.898 237.145 536.74 238.309L486.983 244.633C477.559 221.921 470.487 209.842 453.421 191.322L478.742 148.224C484.001 140.636 482.126 130.293 474.538 125.034L432.205 95.6924C424.617 90.4332 414.274 92.3079 409.015 99.8957L377.424 138.908C354.142 129.34 340.385 126.859 315.826 125.903L304.305 77.2058C302.18 68.2216 294.019 62.1345 284.935 63.781L234.252 72.9676ZM282.189 193.031C316.733 186.77 352.349 194.488 381.203 214.487C410.056 234.485 429.783 265.127 436.045 299.671C442.306 334.215 434.589 369.831 414.59 398.685C394.591 427.538 363.95 447.266 329.406 453.527C312.301 456.628 294.754 456.329 277.765 452.647C260.776 448.966 244.678 441.975 230.391 432.072C216.104 422.17 203.908 409.55 194.498 394.934C185.088 380.318 178.649 363.992 175.549 346.887C169.288 312.343 177.006 276.727 197.004 247.873C217.003 219.02 247.645 199.293 282.189 193.031V193.031Z" fill="#FF9C9C"/>
<path id="path4819" d="M249.644 49.1029C240.496 50.3437 234.615 58.6543 235.371 67.8555L239.476 117.844C216.367 126.249 203.985 132.776 184.724 149.001L142.795 121.789C135.449 116.197 125.033 117.61 119.441 124.956L88.2444 165.943C82.6529 173.289 84.0656 183.705 91.412 189.296L128.981 222.593C118.387 245.426 115.297 259.058 113.25 283.55L64.0876 292.893C55.0178 294.617 48.5726 302.499 49.8135 311.647L56.7364 362.688C57.9772 371.837 66.2888 377.717 75.49 376.962L125.479 372.857C133.884 395.965 140.411 408.347 156.636 427.608L129.422 469.538C123.831 476.885 125.243 487.3 132.59 492.891L173.577 524.088C180.923 529.68 190.808 527.83 196.931 520.921L230.226 483.352C253.06 493.946 266.692 497.036 291.184 499.083L300.528 548.246C302.252 557.316 310.132 563.76 319.281 562.519L370.322 555.596C379.47 554.355 385.352 546.045 384.596 536.843L380.491 486.854C403.6 478.449 415.981 471.922 435.242 455.697L477.172 482.91C484.518 488.502 494.934 487.089 500.526 479.743L531.722 438.755C537.313 431.409 535.9 420.994 528.554 415.403L490.986 382.107C501.58 359.274 504.67 345.641 506.717 321.148L555.879 311.805C564.949 310.081 571.393 302.2 570.153 293.052L563.23 242.011C561.989 232.862 553.678 226.981 544.477 227.736L494.488 231.841C486.083 208.732 479.556 196.351 463.331 177.09L490.544 135.161C496.135 127.814 494.723 117.398 487.376 111.807L446.39 80.6109C439.044 75.0194 428.628 76.4321 423.036 83.7784L389.741 121.347C366.907 110.752 353.275 107.662 328.783 105.615L319.439 56.4531C317.715 47.3832 309.834 40.9391 300.685 42.18L249.644 49.1029ZM292.193 171.18C326.981 166.462 362.218 175.756 390.154 197.019C418.089 218.281 436.434 249.77 441.152 284.558C443.489 301.783 442.409 319.3 437.976 336.109C433.543 352.917 425.842 368.687 415.314 382.52C404.786 396.352 391.637 407.975 376.616 416.726C361.596 425.476 345 431.182 327.775 433.519C310.549 435.855 293.032 434.776 276.224 430.343C259.415 425.909 243.645 418.209 229.812 407.68C215.98 397.152 204.357 384.003 195.607 368.982C186.856 353.962 181.15 337.365 178.814 320.14C174.095 285.352 183.39 250.114 204.653 222.179C225.915 194.243 257.404 175.899 292.193 171.18V171.18Z" stroke="#721F1F" stroke-width="4.71911"/>
</g>
</svg>
